<svg xmlns="http://www.w3.org/2000/svg" width="182" height="182" fill="none">
  <mask id="a" fill="#fff">
    <path d="M61 12c0-6.627 5.373-12 12-12h33c6.627 0 12 5.373 12 12v158c0 6.627-5.373 12-12 12H73c-6.627 0-12-5.373-12-12V12Z"/>
  </mask>
  <path fill="#9FD9C3" d="M61 12c0-6.627 5.373-12 12-12h33c6.627 0 12 5.373 12 12v158c0 6.627-5.373 12-12 12H73c-6.627 0-12-5.373-12-12V12Z"/>
  <path fill="#CCE1D7" d="M61 12c0-7.18 5.82-13 13-13h31c7.18 0 13 5.82 13 13 0-6.075-5.373-11-12-11H73c-6.627 0-12 4.925-12 11Zm57 158c0 7.18-5.82 13-13 13H74c-7.18 0-13-5.82-13-13 0 6.075 5.373 11 12 11h33c6.627 0 12-4.925 12-11Zm-57 12V0v182ZM118 0v182V0Z" mask="url(#a)"/>
  <mask id="b" fill="#fff">
    <path d="M170 61c6.627 0 12 5.373 12 12v33c0 6.627-5.373 12-12 12H12c-6.627 0-12-5.373-12-12V73c0-6.627 5.373-12 12-12h158Z"/>
  </mask>
  <path fill="#9FD9C3" d="M170 61c6.627 0 12 5.373 12 12v33c0 6.627-5.373 12-12 12H12c-6.627 0-12-5.373-12-12V73c0-6.627 5.373-12 12-12h158Z"/>
  <path fill="#CCE1D7" d="M170 61c7.18 0 13 5.82 13 13v31c0 7.18-5.82 13-13 13 6.075 0 11-5.373 11-12V73c0-6.627-4.925-12-11-12ZM12 118c-7.18 0-13-5.82-13-13V74c0-7.18 5.82-13 13-13-6.075 0-11 5.373-11 12v33c0 6.627 4.925 12 11 12ZM0 61h182H0Zm182 57H0h182Z" mask="url(#b)"/>
</svg>
